<mxfile host="app.diagrams.net" modified="2021-02-04T10:52:23.863Z" agent="5.0 (Windows NT 6.1; Win64; x64) AppleWebKit/537.36 (KHTML, like Gecko) Chrome/88.0.4324.146 Safari/537.36" etag="CfJvhb_UfvVhPqf2kIqR" version="14.2.9" type="github">
  <diagram id="VCdo3knrtWkbR9cGN06g" name="Page-1">
    <mxGraphModel dx="942" dy="504" grid="1" gridSize="10" guides="1" tooltips="1" connect="1" arrows="1" fold="1" page="1" pageScale="1" pageWidth="850" pageHeight="1100" math="0" shadow="0">
      <root>
        <mxCell id="0" />
        <mxCell id="1" parent="0" />
        <mxCell id="D4sAwF_U6w_CXJ5x-tzL-13" value="" style="rounded=1;whiteSpace=wrap;html=1;fontSize=10;fillColor=#dae8fc;strokeColor=#6c8ebf;" vertex="1" parent="1">
          <mxGeometry x="220" y="60" width="340" height="410" as="geometry" />
        </mxCell>
        <mxCell id="D4sAwF_U6w_CXJ5x-tzL-1" value="" style="rounded=1;whiteSpace=wrap;html=1;fillColor=#f5f5f5;strokeColor=#666666;fontColor=#333333;" vertex="1" parent="1">
          <mxGeometry x="240" y="80" width="240" height="270" as="geometry" />
        </mxCell>
        <mxCell id="D4sAwF_U6w_CXJ5x-tzL-2" value="&lt;b&gt;&lt;font style=&quot;font-size: 14px&quot;&gt;In house built framework&lt;/font&gt;&lt;/b&gt;" style="rounded=1;whiteSpace=wrap;html=1;" vertex="1" parent="1">
          <mxGeometry x="270" y="110" width="190" height="40" as="geometry" />
        </mxCell>
        <mxCell id="D4sAwF_U6w_CXJ5x-tzL-3" value="&lt;font style=&quot;font-size: 10px&quot;&gt;Platform Option: iOS/Android&lt;/font&gt;" style="shape=document;whiteSpace=wrap;html=1;boundedLbl=1;" vertex="1" parent="1">
          <mxGeometry x="260" y="170" width="60" height="70" as="geometry" />
        </mxCell>
        <mxCell id="D4sAwF_U6w_CXJ5x-tzL-7" value="iOS" style="shape=cylinder3;whiteSpace=wrap;html=1;boundedLbl=1;backgroundOutline=1;size=7;fillColor=#d5e8d4;strokeColor=#82b366;fontSize=10;" vertex="1" parent="1">
          <mxGeometry x="340" y="260" width="30" height="50" as="geometry" />
        </mxCell>
        <mxCell id="D4sAwF_U6w_CXJ5x-tzL-8" value="Repository" style="text;html=1;strokeColor=none;fillColor=none;align=center;verticalAlign=middle;whiteSpace=wrap;rounded=0;" vertex="1" parent="1">
          <mxGeometry x="380" y="320" width="40" height="20" as="geometry" />
        </mxCell>
        <mxCell id="D4sAwF_U6w_CXJ5x-tzL-9" value="Android" style="shape=cylinder3;whiteSpace=wrap;html=1;boundedLbl=1;backgroundOutline=1;size=9;fillColor=#d5e8d4;strokeColor=#82b366;fontSize=7;" vertex="1" parent="1">
          <mxGeometry x="420" y="260" width="30" height="50" as="geometry" />
        </mxCell>
        <mxCell id="D4sAwF_U6w_CXJ5x-tzL-10" value="&lt;span style=&quot;font-size: 12px&quot;&gt;Single Test script for&lt;br&gt;&amp;nbsp;iOS and Android&lt;/span&gt;" style="strokeWidth=2;html=1;shape=mxgraph.flowchart.multi-document;whiteSpace=wrap;fontSize=10;" vertex="1" parent="1">
          <mxGeometry x="330" y="160" width="140" height="70" as="geometry" />
        </mxCell>
        <mxCell id="D4sAwF_U6w_CXJ5x-tzL-11" value="" style="endArrow=classic;startArrow=classic;html=1;fontSize=10;exitX=1;exitY=0.5;exitDx=0;exitDy=0;exitPerimeter=0;entryX=0;entryY=0.5;entryDx=0;entryDy=0;entryPerimeter=0;" edge="1" parent="1" source="D4sAwF_U6w_CXJ5x-tzL-7" target="D4sAwF_U6w_CXJ5x-tzL-9">
          <mxGeometry width="50" height="50" relative="1" as="geometry">
            <mxPoint x="400" y="260" as="sourcePoint" />
            <mxPoint x="450" y="210" as="targetPoint" />
          </mxGeometry>
        </mxCell>
        <mxCell id="D4sAwF_U6w_CXJ5x-tzL-12" value="" style="endArrow=classic;html=1;fontSize=10;entryX=0.429;entryY=0.986;entryDx=0;entryDy=0;entryPerimeter=0;" edge="1" parent="1" target="D4sAwF_U6w_CXJ5x-tzL-10">
          <mxGeometry width="50" height="50" relative="1" as="geometry">
            <mxPoint x="390" y="290" as="sourcePoint" />
            <mxPoint x="450" y="210" as="targetPoint" />
          </mxGeometry>
        </mxCell>
        <mxCell id="D4sAwF_U6w_CXJ5x-tzL-14" value="DB" style="shape=cylinder3;whiteSpace=wrap;html=1;boundedLbl=1;backgroundOutline=1;size=7;fontSize=10;fillColor=#fff2cc;strokeColor=#d6b656;" vertex="1" parent="1">
          <mxGeometry x="510" y="210" width="40" height="50" as="geometry" />
        </mxCell>
        <mxCell id="D4sAwF_U6w_CXJ5x-tzL-15" value="&lt;b&gt;&lt;font style=&quot;font-size: 13px&quot;&gt;Appium Server&lt;/font&gt;&lt;/b&gt;" style="rounded=1;whiteSpace=wrap;html=1;fontSize=10;" vertex="1" parent="1">
          <mxGeometry x="250" y="390" width="120" height="30" as="geometry" />
        </mxCell>
      </root>
    </mxGraphModel>
  </diagram>
</mxfile>
